<?xml version="1.0" encoding="UTF-8" standalone="no"?>
<!-- Created with Inkscape (http://www.inkscape.org/) -->

<svg
   xmlns:dc="http://purl.org/dc/elements/1.1/"
   xmlns:cc="http://creativecommons.org/ns#"
   xmlns:rdf="http://www.w3.org/1999/02/22-rdf-syntax-ns#"
   xmlns:svg="http://www.w3.org/2000/svg"
   xmlns="http://www.w3.org/2000/svg"
   xmlns:sodipodi="http://sodipodi.sourceforge.net/DTD/sodipodi-0.dtd"
   xmlns:inkscape="http://www.inkscape.org/namespaces/inkscape"
   width="1080px"
   height="1080px"
   viewBox="0 0 1080 1080"
   version="1.1"
   id="SVGRoot"
   inkscape:version="0.92.4 (5da689c313, 2019-01-14)"
   sodipodi:docname="date-1.svg">
  <defs
     id="defs1612">
    <pattern
       y="0"
       x="0"
       height="6"
       width="6"
       patternUnits="userSpaceOnUse"
       id="EMFhbasepattern" />
  </defs>
  <sodipodi:namedview
     id="base"
     pagecolor="#ffffff"
     bordercolor="#666666"
     borderopacity="1.0"
     inkscape:pageopacity="0.0"
     inkscape:pageshadow="2"
     inkscape:zoom="0.70710678"
     inkscape:cx="257.80265"
     inkscape:cy="580.63684"
     inkscape:document-units="px"
     inkscape:current-layer="layer1"
     showgrid="false"
     inkscape:window-width="1920"
     inkscape:window-height="1003"
     inkscape:window-x="-9"
     inkscape:window-y="-9"
     inkscape:window-maximized="1" />
  <metadata
     id="metadata1615">
    <rdf:RDF>
      <cc:Work
         rdf:about="">
        <dc:format>image/svg+xml</dc:format>
        <dc:type
           rdf:resource="http://purl.org/dc/dcmitype/StillImage" />
        <dc:title></dc:title>
      </cc:Work>
    </rdf:RDF>
  </metadata>
  <g
     inkscape:label="Layer 1"
     inkscape:groupmode="layer"
     id="layer1">
    <text
       xml:space="preserve"
       style="font-style:normal;font-variant:normal;font-weight:normal;font-stretch:normal;font-size:40px;line-height:1.25;font-family:'Snap ITC';-inkscape-font-specification:'Snap ITC';letter-spacing:0px;word-spacing:0px;fill:#000000;fill-opacity:1;stroke:none"
       x="-77"
       y="476"
       id="text2208"><tspan
         sodipodi:role="line"
         id="tspan2206"
         x="-77"
         y="511.39062" /></text>
    <g
       id="g858">
      <path
         inkscape:connector-curvature="0"
         id="rect1373"
         d="m 291.06277,186.86479 h 482.96649 c 69.78661,0 125.96861,51.01668 125.96861,114.38716 v 514.64172 c 0,63.37046 -56.182,114.38716 -125.96861,114.38716 H 291.06277 c -69.7866,0 -125.9686,-51.0167 -125.9686,-114.38716 V 301.25195 c 0,-63.37048 56.182,-114.38716 125.9686,-114.38716 z"
         style="opacity:1;fill:#ececec;fill-opacity:1;stroke:#ffffff;stroke-width:15.89433098;stroke-linecap:butt;stroke-linejoin:round;stroke-miterlimit:4;stroke-dasharray:none;stroke-opacity:1;paint-order:stroke markers fill" />
      <path
         inkscape:connector-curvature="0"
         id="path1400"
         d="m 164.65664,310.8595 c 0,-4.87305 0.49316,-13.66571 1.0959,-19.53926 5.4171,-52.78832 47.78303,-94.16511 105.37129,-102.91114 15.00743,-2.27919 507.84135,-2.27919 522.84877,0 42.93929,6.52127 77.54386,30.74802 94.92623,66.45812 8.15847,16.76062 11.44053,32.75481 11.51376,56.10888 l 0.0272,8.673 -367.89157,0.0352 -367.89158,0.0352 v -8.86007 z"
         style="opacity:1;fill:#ff5555;fill-opacity:1;stroke:#ffffff;stroke-width:10.64671898;stroke-linecap:butt;stroke-linejoin:round;stroke-miterlimit:4;stroke-dasharray:none;stroke-opacity:1;paint-order:stroke markers fill" />
    </g>
    <g
       aria-label="1"
       transform="matrix(3.8382966,0,0,3.4933246,-869.96766,-953.2078)"
       style="font-style:normal;font-variant:normal;font-weight:normal;font-stretch:normal;font-size:192px;line-height:1.25;font-family:'Showcard Gothic';-inkscape-font-specification:'Showcard Gothic';letter-spacing:0px;word-spacing:0px;fill:#52c4ab;fill-opacity:1;stroke:#2b8c79;stroke-width:1.36546718;stroke-miterlimit:4;stroke-dasharray:none;stroke-opacity:0.46000001"
       id="flowRoot2198">
      <path
         d="m 390.3125,378.43359 q -0.65625,19.125 -1.96875,67.96875 -0.46875,24.375 -0.9375,76.59375 H 345.6875 q 0.1875,-28.96875 -0.5625,-53.90625 -0.1875,-7.3125 -0.9375,-39.5625 -1.59375,0.28125 -6.9375,1.5 -2.8125,0.65625 -6.65625,2.15625 l -8.90625,-31.5 q 10.59375,-4.5 37.5,-16.96875 8.34375,-4.03125 22.03125,-11.4375 z"
         style="fill:#52c4ab;fill-opacity:1;stroke-width:1.36546718;stroke-miterlimit:4;stroke-dasharray:none;stroke:#2b8c79;stroke-opacity:0.46000001"
         id="path822"
         inkscape:connector-curvature="0" />
    </g>
    <ellipse
       style="opacity:1;fill:#4d4d4d;fill-opacity:1;stroke:#ffffff;stroke-width:0;stroke-linecap:butt;stroke-linejoin:round;stroke-miterlimit:4;stroke-dasharray:none;stroke-opacity:1;paint-order:stroke markers fill"
       id="path1441"
       cx="376.36627"
       cy="219.93532"
       rx="44.350281"
       ry="43.232204" />
    <ellipse
       style="opacity:1;fill:#4d4d4d;fill-opacity:1;stroke:#ffffff;stroke-width:0;stroke-linecap:butt;stroke-linejoin:round;stroke-miterlimit:4;stroke-dasharray:none;stroke-opacity:1;paint-order:stroke markers fill"
       id="path1441-8"
       cx="661.07697"
       cy="220.06319"
       rx="44.536629"
       ry="43.232204" />
    <ellipse
       style="opacity:1;fill:#4d4d4d;fill-opacity:1;stroke:#ffffff;stroke-width:0;stroke-linecap:butt;stroke-linejoin:round;stroke-miterlimit:4;stroke-dasharray:none;stroke-opacity:1;paint-order:stroke markers fill"
       id="path1441-4"
       cx="517.4884"
       cy="221.7878"
       rx="43.977589"
       ry="43.232204" />
    <path
       style="fill:none;stroke:#ff5555;stroke-width:1px;stroke-linecap:butt;stroke-linejoin:miter;stroke-opacity:1"
       d="M 339.58803,187.27769 H 709.93521"
       id="path908"
       inkscape:connector-curvature="0" />
    <path
       style="opacity:1;fill:#ffffff;fill-opacity:1;stroke:#ffffff;stroke-width:2.5;stroke-linecap:butt;stroke-linejoin:round;stroke-miterlimit:4;stroke-dasharray:none;stroke-opacity:1;paint-order:stroke markers fill"
       d="m 350.72226,184.98938 c 5.72743,-4.15401 14.31326,-7.19286 22.4984,-7.96304 9.47137,-0.8912 22.97452,3.06339 29.77056,8.71873 l 1.22944,1.02309 -27.9984,0.0166 -27.9984,0.0166 z"
       id="path912"
       inkscape:connector-curvature="0" />
    <path
       style="opacity:1;fill:#ffffff;fill-opacity:1;stroke:#ffffff;stroke-width:0.625;stroke-linecap:butt;stroke-linejoin:round;stroke-miterlimit:4;stroke-dasharray:none;stroke-opacity:1;paint-order:stroke markers fill"
       d="m 492.04291,186.62914 c 0,-0.0938 2.69716,-1.79401 3.97093,-2.50312 5.81268,-3.23591 12.72147,-5.17514 19.34157,-5.42898 8.28301,-0.3176 15.71704,1.29388 22.625,4.90444 1.47962,0.77335 4.079,2.33851 4.6875,2.82248 0.31216,0.24827 0.28448,0.24855 -25.15625,0.25132 -14.00781,0.002 -25.46875,-0.0192 -25.46875,-0.0461 z"
       id="path914"
       inkscape:connector-curvature="0" />
    <path
       style="opacity:1;fill:#ffffff;fill-opacity:1;stroke:#ffffff;stroke-width:0.625;stroke-linecap:butt;stroke-linejoin:round;stroke-miterlimit:4;stroke-dasharray:none;stroke-opacity:1;paint-order:stroke markers fill"
       d="m 633.59162,186.12098 c 1.21988,-0.94726 3.56798,-2.49398 5.13879,-3.385 5.01679,-2.84569 10.64574,-4.69998 16.75,-5.51776 2.37244,-0.31784 8.83435,-0.31761 11.1875,3.9e-4 5.63432,0.76141 10.34543,2.21207 15.125,4.65736 2.41243,1.23422 5.53424,3.21551 7.0625,4.48227 l 0.375,0.31083 -28.1781,0.005 -28.1781,0.004 z"
       id="path916"
       inkscape:connector-curvature="0" />
    <ellipse
       style="opacity:1;fill:#f2f2f2;fill-opacity:1;stroke:#ffffff;stroke-width:0;stroke-linecap:butt;stroke-linejoin:round;stroke-miterlimit:4;stroke-dasharray:none;stroke-opacity:1;paint-order:stroke markers fill"
       id="path1441-89"
       cx="376.64526"
       cy="222.7084"
       rx="36.407398"
       ry="35.489563" />
    <ellipse
       style="opacity:1;fill:#f2f2f2;fill-opacity:1;stroke:#ffffff;stroke-width:0;stroke-linecap:butt;stroke-linejoin:round;stroke-miterlimit:4;stroke-dasharray:none;stroke-opacity:1;paint-order:stroke markers fill"
       id="path1441-89-7"
       cx="516.77374"
       cy="220.98657"
       rx="36.407398"
       ry="35.489563" />
    <ellipse
       style="opacity:1;fill:#f2f2f2;fill-opacity:1;stroke:#ffffff;stroke-width:0;stroke-linecap:butt;stroke-linejoin:round;stroke-miterlimit:4;stroke-dasharray:none;stroke-opacity:1;paint-order:stroke markers fill"
       id="path1441-89-5"
       cx="661.85193"
       cy="219.32973"
       rx="36.407398"
       ry="35.489563" />
  </g>
</svg>
