<?xml version="1.0" encoding="UTF-8" standalone="no"?>
<!-- Created with Inkscape (http://www.inkscape.org/) -->

<svg
   xmlns:dc="http://purl.org/dc/elements/1.1/"
   xmlns:cc="http://creativecommons.org/ns#"
   xmlns:rdf="http://www.w3.org/1999/02/22-rdf-syntax-ns#"
   xmlns:svg="http://www.w3.org/2000/svg"
   xmlns="http://www.w3.org/2000/svg"
   xmlns:sodipodi="http://sodipodi.sourceforge.net/DTD/sodipodi-0.dtd"
   xmlns:inkscape="http://www.inkscape.org/namespaces/inkscape"
   width="75px"
   height="60px"
   viewBox="0 0 75 60"
   version="1.1"
   id="SVGRoot"
   inkscape:version="0.92.4 (5da689c313, 2019-01-14)"
   sodipodi:docname="elevator.svg">
  <defs
     id="defs831">
    <inkscape:path-effect
       effect="spiro"
       id="path-effect1479"
       is_visible="true" />
    <inkscape:path-effect
       effect="spiro"
       id="path-effect1443"
       is_visible="true" />
    <inkscape:path-effect
       effect="spiro"
       id="path-effect1401"
       is_visible="true" />
    <inkscape:path-effect
       effect="spiro"
       id="path-effect1397"
       is_visible="true" />
  </defs>
  <sodipodi:namedview
     id="base"
     pagecolor="#ffffff"
     bordercolor="#666666"
     borderopacity="1.0"
     inkscape:pageopacity="0.0"
     inkscape:pageshadow="2"
     inkscape:zoom="4"
     inkscape:cx="-65.764401"
     inkscape:cy="39.676095"
     inkscape:document-units="px"
     inkscape:current-layer="layer1"
     showgrid="false"
     inkscape:window-width="1920"
     inkscape:window-height="1003"
     inkscape:window-x="-9"
     inkscape:window-y="-9"
     inkscape:window-maximized="1" />
  <metadata
     id="metadata834">
    <rdf:RDF>
      <cc:Work
         rdf:about="">
        <dc:format>image/svg+xml</dc:format>
        <dc:type
           rdf:resource="http://purl.org/dc/dcmitype/StillImage" />
        <dc:title></dc:title>
      </cc:Work>
    </rdf:RDF>
  </metadata>
  <g
     inkscape:label="Layer 1"
     inkscape:groupmode="layer"
     id="layer1">
    <rect
       style="opacity:1;fill:none;fill-opacity:1;stroke:#050000;stroke-width:1.05147707;stroke-linecap:round;stroke-linejoin:miter;stroke-miterlimit:4;stroke-dasharray:none;stroke-dashoffset:0;stroke-opacity:1;paint-order:normal"
       id="rect1389"
       width="63.792061"
       height="58.694935"
       x="6.0796204"
       y="0.72499609" />
    <rect
       y="11.559832"
       x="15.053133"
       height="47.927158"
       width="45.230434"
       id="rect1393"
       style="opacity:1;fill:none;fill-opacity:1;stroke:#050000;stroke-width:0.80005968;stroke-linecap:round;stroke-linejoin:miter;stroke-miterlimit:4;stroke-dasharray:none;stroke-dashoffset:0;stroke-opacity:1;paint-order:normal" />
    <g
       id="g1413"
       transform="matrix(0.78017339,0.07832137,-0.07372272,0.82883879,16.739686,-1.3141188)" />
    <g
       transform="matrix(0.78017339,-0.07832137,-0.07372272,-0.82883879,16.935598,63.889209)"
       id="g1419" />
    <g
       aria-label="8"
       transform="matrix(0.27093939,0,0,0.23470559,44.943334,6.7495559)"
       style="font-style:normal;font-variant:normal;font-weight:normal;font-stretch:normal;font-size:40px;line-height:1.25;font-family:'Snap ITC';-inkscape-font-specification:'Snap ITC';letter-spacing:0px;word-spacing:0px;fill:#00ffff;fill-opacity:1;stroke:none"
       id="flowRoot1421">
      <path
         d="m -21.425781,4.9941406 q 0,2.421875 -1.5625,4.2578125 -2.1875,2.6171879 -6.777344,2.6171879 -3.691406,0 -5.957031,-2.1484379 -2.050781,-1.9140625 -2.050781,-4.5507812 0,-2.5390625 1.328125,-4.23828127 0.898437,-1.13281251 4.160156,-3.59375003 -3.085938,-2.6953125 -3.925781,-3.8476562 -1.269532,-1.7382813 -1.269532,-4.0820314 0,-2.96875 2.558594,-4.824219 2.265625,-1.660156 5.273438,-1.660156 3.4375,0 5.46875,1.777344 1.894531,1.640625 1.894531,4.179687 0,2.5195316 -1.972656,4.3945316 -1.09375,1.0351563 -3.691407,2.4414063 3.945313,2.8125 5.390625,5.07812497 1.132813,1.79687503 1.132813,4.19921873 z m -3.789063,-16.3281246 q 0,-1.894532 -1.132812,-3.164063 -1.289063,-1.425781 -3.574219,-1.425781 -2.1875,0 -3.417969,1.367187 -1.074218,1.191407 -1.074218,2.890625 0,3.1250004 5.273437,6.6210941 1.796875,-1.2304687 2.558594,-2.1679687 1.367187,-1.6992188 1.367187,-4.1210934 z m 0.585938,17.3437496 q 0,-2.1875 -1.484375,-3.7890625 -1.054688,-1.1523437 -5.078125,-4.0234375 -3.359375,2.63671878 -3.359375,6.5429688 0,2.5195312 1.386719,4.1796875 1.464843,1.7578121 3.925781,1.7578121 2.03125,0 3.320312,-1.2499996 1.289063,-1.2695313 1.289063,-3.4179688 z"
         style="font-style:normal;font-variant:normal;font-weight:normal;font-stretch:normal;font-family:'Simplified Arabic Fixed';-inkscape-font-specification:'Simplified Arabic Fixed';fill:#00ffff;fill-opacity:1"
         id="path1474"
         inkscape:connector-curvature="0" />
    </g>
    <g
       id="g1472"
       transform="translate(-2.0027597,-0.0625)">
      <g
         id="g1450">
        <g
           transform="matrix(0.26770519,0.02529688,-0.02529688,0.26770519,29.725633,-1.1914579)"
           id="g1433" />
      </g>
      <g
         transform="matrix(1,0,0,-1,0,18.307276)"
         id="g1460">
        <g
           id="g1456"
           transform="matrix(0.26770519,0.02529688,-0.02529688,0.26770519,29.725633,-1.1914579)" />
      </g>
    </g>
    <path
       style="fill:none;stroke:#000000;stroke-width:1px;stroke-linecap:butt;stroke-linejoin:miter;stroke-opacity:1"
       d="m 39.06765,14.568389 0.176776,44.724504"
       id="path1477"
       inkscape:connector-curvature="0"
       inkscape:path-effect="#path-effect1479"
       inkscape:original-d="m 39.06765,14.568389 c 0.05992,14.907168 0.176776,44.724504 0.176776,44.724504"
       transform="matrix(1.0489189,0,0,1.0540415,-2.3952461,-3.488038)" />
    <path
       style="opacity:1;fill:#1a1a1a;fill-opacity:1;stroke:#050000;stroke-width:0.03943039;stroke-linecap:round;stroke-linejoin:miter;stroke-miterlimit:4;stroke-dasharray:none;stroke-dashoffset:0;stroke-opacity:1;paint-order:fill markers stroke"
       d="M 6.7204586,30.089606 V 1.3669767 H 37.991353 69.262247 V 30.089606 58.812236 H 65.001014 60.739781 V 34.964548 11.11686 H 37.663565 14.587351 V 34.964548 58.812236 H 10.653905 6.7204586 Z m 60.6139894,5.955818 1.542646,-1.55423 -0.335671,-0.316888 -0.335674,-0.316887 -1.241801,1.242677 -1.241802,1.242678 -1.241802,-1.242678 -1.2418,-1.242677 -0.335674,0.316887 -0.335673,0.316888 1.542647,1.55423 c 0.848455,0.854826 1.573992,1.554227 1.612302,1.554227 0.03831,0 0.763848,-0.699401 1.612302,-1.554227 z M 67.16399,26.992937 c -0.826718,-0.83312 -1.564051,-1.514762 -1.638517,-1.514762 -0.07446,0 -0.809552,0.679381 -1.633525,1.509734 -1.479463,1.490918 -1.495116,1.513085 -1.25591,1.778695 0.133223,0.147928 0.305723,0.268961 0.383332,0.268961 0.07761,0 0.67437,-0.533638 1.326133,-1.18586 l 1.185024,-1.18586 1.240281,1.251541 1.24028,1.251542 0.328013,-0.329615 0.328013,-0.329614 z M 38.329317,9.2507084 c 0.485489,-0.2741925 0.907627,-0.9034987 0.907627,-1.3530547 0,-0.490046 -0.410013,-1.135827 -1.037706,-1.6344122 l -0.668144,-0.530717 0.537992,-0.3038449 c 1.685523,-0.9519435 0.86065,-2.7492427 -1.257767,-2.7405227 -0.648549,0.00267 -1.533029,0.3927836 -1.818235,0.8019613 -0.117724,0.1688964 -0.214046,0.5629082 -0.214046,0.8755816 0,0.5026697 0.07007,0.6369259 0.605105,1.159463 l 0.605104,0.5909662 -0.600491,0.5311556 c -1.008268,0.8918475 -0.947171,2.0372962 0.139408,2.6135656 0.715553,0.3794956 2.120262,0.3744098 2.801153,-0.01012 z m 6.206223,-1.8111 c 0.275309,-0.28332 0.460807,-0.5797695 0.412215,-0.658776 -0.116073,-0.1887282 -1.865278,-0.1887282 -1.981352,0 -0.07952,0.1292964 0.80204,1.1739039 0.990676,1.1739039 0.04285,0 0.30315,-0.2318078 0.578461,-0.5151279 z m 0.470458,-2.1591143 c 0,-0.093991 -0.236007,-0.4024733 -0.52446,-0.6855154 l -0.524459,-0.5146221 -0.52446,0.5146221 c -0.771593,0.7571211 -0.71079,0.8564086 0.52446,0.8564086 0.772019,0 1.048919,-0.045113 1.048919,-0.1708932 z"
       id="path1497"
       inkscape:connector-curvature="0" />
    <path
       style="opacity:1;fill:#000000;fill-opacity:1;stroke:#050000;stroke-width:0.0197152;stroke-linecap:round;stroke-linejoin:miter;stroke-miterlimit:4;stroke-dasharray:none;stroke-dashoffset:0;stroke-opacity:1;paint-order:fill markers stroke"
       d="m 36.637797,5.2819455 c -0.730904,-0.5003459 -1.07425,-1.033128 -0.950525,-1.474967 0.143645,-0.5129779 0.490634,-0.7381126 1.138165,-0.7384678 0.693345,-3.803e-4 1.072297,0.2403446 1.219034,0.7743767 0.08695,0.3164386 -0.02773,0.8214437 -0.245646,1.0816789 -0.194947,0.2328125 -0.651174,0.581169 -0.76113,0.581169 -0.04014,0 -0.220096,-0.1007053 -0.399898,-0.2237898 z"
       id="path1501"
       inkscape:connector-curvature="0" />
    <path
       style="opacity:1;fill:#000000;fill-opacity:1;stroke:#050000;stroke-width:0.0197152;stroke-linecap:round;stroke-linejoin:miter;stroke-miterlimit:4;stroke-dasharray:none;stroke-dashoffset:0;stroke-opacity:1;paint-order:fill markers stroke"
       d="M 36.715056,9.1852411 C 36.10599,9.0950941 35.686238,8.6483959 35.635754,8.0366628 35.590819,7.4921334 35.722007,7.1271041 36.115181,6.702631 l 0.339611,-0.3666424 0.488181,0.3057558 c 1.203254,0.7536174 1.543745,1.3451202 1.164562,2.0230796 -0.240673,0.4303128 -0.740126,0.6169745 -1.392479,0.5204171 z"
       id="path1503"
       inkscape:connector-curvature="0" />
    <path
       style="opacity:1;fill:#ffffff;fill-opacity:1;stroke:#050000;stroke-width:0.00985759;stroke-linecap:round;stroke-linejoin:miter;stroke-miterlimit:4;stroke-dasharray:none;stroke-dashoffset:0;stroke-opacity:1;paint-order:fill markers stroke"
       d="M 36.246983,9.4494823 C 35.749667,9.3549559 35.381676,9.1595186 35.084545,8.8321239 34.882928,8.6099708 34.78086,8.4024141 34.738373,8.1281737 34.644327,7.5211806 35.021203,6.9220428 35.834139,6.3861596 36.026516,6.2593452 36.183714,6.1407656 36.183466,6.1226492 36.18322,6.1045324 36.06402,6.0007757 35.918579,5.8920777 35.773139,5.7833797 35.523267,5.5709804 35.36331,5.4200794 35.128393,5.1984634 35.048749,5.0974455 34.949057,4.8946559 34.83323,4.6590472 34.825728,4.6252572 34.827154,4.3455515 c 0.0018,-0.3592488 0.07207,-0.6175338 0.22148,-0.8143715 0.219429,-0.2890958 0.67461,-0.5616457 1.153707,-0.6908094 0.370649,-0.099926 1.09919,-0.09996 1.468943,-6.78e-5 0.521341,0.1408448 0.954106,0.46156 1.11799,0.828524 0.224203,0.5020323 0.05692,1.0864966 -0.425647,1.4872207 -0.1538,0.1277141 -0.690468,0.4413054 -0.891112,0.5207031 -0.05859,0.023186 -0.10653,0.051718 -0.10653,0.063402 0,0.011687 0.08143,0.070188 0.180947,0.1300049 0.300935,0.1808757 0.806578,0.5776525 1.019819,0.800249 0.277831,0.2900198 0.395775,0.4669369 0.467406,0.7011122 0.194192,0.6348535 0.0695,1.1438935 -0.385955,1.5756468 -0.409086,0.387798 -0.8058,0.5189904 -1.626394,0.5378503 -0.365753,0.00843 -0.600222,-0.00228 -0.774825,-0.035529 z M 37.564225,9.1735089 C 37.66424,9.1352019 37.806999,9.0588388 37.881457,9.003813 38.370444,8.6424529 38.413504,7.8731715 37.973175,7.3652142 37.837406,7.20859 37.409046,6.8925956 36.848789,6.5357712 L 36.479098,6.3003168 36.296846,6.4567801 c -0.273295,0.2346236 -0.428461,0.4262145 -0.554488,0.6846505 -0.293658,0.6021939 -0.205045,1.2817317 0.223268,1.7121357 0.19969,0.200665 0.366787,0.2963036 0.638585,0.3654983 0.26201,0.066702 0.724178,0.044766 0.960014,-0.04556 z M 37.333806,5.3952976 C 37.768413,5.102284 37.976529,4.8388198 38.07334,4.4590863 38.22763,3.8538912 37.973997,3.3145252 37.436364,3.1045201 37.180333,3.0045115 36.663131,2.9812844 36.395065,3.0577564 c -0.397738,0.1134635 -0.693555,0.4068053 -0.76655,0.7601353 -0.0705,0.3412356 0.05886,0.6631791 0.409932,1.0202161 0.248475,0.2527004 0.955455,0.7504629 1.027993,0.7237782 0.02455,-0.00903 0.144862,-0.083995 0.267366,-0.1665884 z"
       id="path1505"
       inkscape:connector-curvature="0" />
  </g>
</svg>
