<?xml version="1.0" encoding="UTF-8" standalone="no"?>
<!-- Created with Inkscape (http://www.inkscape.org/) -->

<svg
   xmlns:dc="http://purl.org/dc/elements/1.1/"
   xmlns:cc="http://creativecommons.org/ns#"
   xmlns:rdf="http://www.w3.org/1999/02/22-rdf-syntax-ns#"
   xmlns:svg="http://www.w3.org/2000/svg"
   xmlns="http://www.w3.org/2000/svg"
   xmlns:sodipodi="http://sodipodi.sourceforge.net/DTD/sodipodi-0.dtd"
   xmlns:inkscape="http://www.inkscape.org/namespaces/inkscape"
   width="1080px"
   height="1080px"
   viewBox="0 0 1080 1080"
   version="1.1"
   id="SVGRoot"
   inkscape:version="0.92.4 (5da689c313, 2019-01-14)"
   sodipodi:docname="gps.svg">
  <defs
     id="defs1397" />
  <sodipodi:namedview
     id="base"
     pagecolor="#ffffff"
     bordercolor="#666666"
     borderopacity="1.0"
     inkscape:pageopacity="0.0"
     inkscape:pageshadow="2"
     inkscape:zoom="0.24748737"
     inkscape:cx="311.9109"
     inkscape:cy="98.028417"
     inkscape:document-units="px"
     inkscape:current-layer="layer1"
     showgrid="false"
     inkscape:window-width="1920"
     inkscape:window-height="1003"
     inkscape:window-x="-9"
     inkscape:window-y="-9"
     inkscape:window-maximized="1" />
  <metadata
     id="metadata1400">
    <rdf:RDF>
      <cc:Work
         rdf:about="">
        <dc:format>image/svg+xml</dc:format>
        <dc:type
           rdf:resource="http://purl.org/dc/dcmitype/StillImage" />
        <dc:title></dc:title>
      </cc:Work>
    </rdf:RDF>
  </metadata>
  <g
     inkscape:label="Layer 1"
     inkscape:groupmode="layer"
     id="layer1">
    <path
       inkscape:connector-curvature="0"
       style="opacity:1;fill:#ff3366;fill-opacity:1;stroke:#7052a3;stroke-width:0;stroke-linecap:round;stroke-linejoin:round;stroke-miterlimit:4;stroke-dasharray:none;stroke-opacity:1;paint-order:stroke markers fill"
       d="M 807.09619,282.13635 A 257.29919,280.85898 0 0 1 549.797,562.99533 257.29919,280.85898 0 0 1 292.4978,282.13635 257.29919,280.85898 0 0 1 549.797,1.2773743 257.29919,280.85898 0 0 1 807.09619,282.13635 Z"
       id="path1953" />
    <path
       inkscape:connector-curvature="0"
       style="opacity:1;fill:#ff3366;fill-opacity:1;stroke:#7052a3;stroke-width:0;stroke-linecap:round;stroke-linejoin:round;stroke-miterlimit:4;stroke-dasharray:none;stroke-opacity:1;paint-order:stroke markers fill"
       inkscape:transform-center-x="1.640494"
       inkscape:transform-center-y="114.83142"
       d="M 555.8634,1080.5993 309.4211,382.05643 792.46276,372.50205 Z"
       id="path1955" />
    <path
       inkscape:connector-curvature="0"
       style="opacity:1;fill:#ffffff;fill-opacity:1;stroke:#7052a3;stroke-width:0;stroke-linecap:round;stroke-linejoin:round;stroke-miterlimit:4;stroke-dasharray:none;stroke-opacity:1;paint-order:stroke markers fill"
       d="M 734.70201,282.13635 A 184.90501,201.83601 0 0 1 549.797,483.97237 184.90501,201.83601 0 0 1 364.89198,282.13635 184.90501,201.83601 0 0 1 549.797,80.300339 184.90501,201.83601 0 0 1 734.70201,282.13635 Z"
       id="ellipse1982" />
    <path
       inkscape:connector-curvature="0"
       style="opacity:1;fill:#ff3366;fill-opacity:1;stroke:#7052a3;stroke-width:0;stroke-linecap:round;stroke-linejoin:round;stroke-miterlimit:4;stroke-dasharray:none;stroke-opacity:1;paint-order:stroke markers fill"
       d="M 645.16185,282.13635 A 95.364853,104.09701 0 0 1 549.797,386.23336 95.364853,104.09701 0 0 1 454.43214,282.13635 95.364853,104.09701 0 0 1 549.797,178.03934 95.364853,104.09701 0 0 1 645.16185,282.13635 Z"
       id="ellipse1993" />
  </g>
</svg>
