<?xml version="1.0" encoding="UTF-8" standalone="no"?>
<!-- Created with Inkscape (http://www.inkscape.org/) -->

<svg
   xmlns:dc="http://purl.org/dc/elements/1.1/"
   xmlns:cc="http://creativecommons.org/ns#"
   xmlns:rdf="http://www.w3.org/1999/02/22-rdf-syntax-ns#"
   xmlns:svg="http://www.w3.org/2000/svg"
   xmlns="http://www.w3.org/2000/svg"
   xmlns:sodipodi="http://sodipodi.sourceforge.net/DTD/sodipodi-0.dtd"
   xmlns:inkscape="http://www.inkscape.org/namespaces/inkscape"
   width="1920px"
   height="1080px"
   viewBox="0 0 1920 1080"
   version="1.1"
   id="SVGRoot"
   sodipodi:docname="laptop.svg"
   inkscape:version="0.92.4 (5da689c313, 2019-01-14)">
  <defs
     id="defs863">
    <inkscape:perspective
       sodipodi:type="inkscape:persp3d"
       inkscape:vp_x="-367.24549 : 826.7176 : 1"
       inkscape:vp_y="0 : 659.70717 : 0"
       inkscape:vp_z="1124.1074 : 826.7176 : 1"
       inkscape:persp3d-origin="378.43096 : 707.97031 : 1"
       id="perspective2564" />
    <inkscape:perspective
       sodipodi:type="inkscape:persp3d"
       inkscape:vp_x="1232.3277 : 790.95733 : 1"
       inkscape:vp_y="0 : 827.1826 : 0"
       inkscape:vp_z="478.30355 : 790.95733 : 1"
       inkscape:persp3d-origin="855.3156 : 642.06448 : 1"
       id="perspective2534" />
    <inkscape:perspective
       sodipodi:type="inkscape:persp3d"
       inkscape:vp_x="-46.060715 : 752.75966 : 1"
       inkscape:vp_y="0 : 1000 : 0"
       inkscape:vp_z="1873.9393 : 752.75966 : 1"
       inkscape:persp3d-origin="913.93929 : 572.75966 : 1"
       id="perspective2518" />
    <inkscape:perspective
       sodipodi:type="inkscape:persp3d"
       inkscape:vp_x="-157.78359 : 761.24494 : 1"
       inkscape:vp_y="0 : 1000 : 0"
       inkscape:vp_z="1762.2164 : 761.24494 : 1"
       inkscape:persp3d-origin="802.21642 : 581.24494 : 1"
       id="perspective2484" />
  </defs>
  <sodipodi:namedview
     id="base"
     pagecolor="#ffffff"
     bordercolor="#666666"
     borderopacity="1.0"
     inkscape:pageopacity="0.0"
     inkscape:pageshadow="2"
     inkscape:zoom="0.5"
     inkscape:cx="161.15437"
     inkscape:cy="543.73417"
     inkscape:document-units="px"
     inkscape:current-layer="layer1"
     showgrid="false"
     inkscape:window-width="1920"
     inkscape:window-height="1003"
     inkscape:window-x="-9"
     inkscape:window-y="-9"
     inkscape:window-maximized="1"
     showguides="false" />
  <metadata
     id="metadata866">
    <rdf:RDF>
      <cc:Work
         rdf:about="">
        <dc:format>image/svg+xml</dc:format>
        <dc:type
           rdf:resource="http://purl.org/dc/dcmitype/StillImage" />
        <dc:title />
      </cc:Work>
    </rdf:RDF>
  </metadata>
  <g
     inkscape:label="Layer 1"
     inkscape:groupmode="layer"
     id="layer1">
    <rect
       style="opacity:1;fill:#ffffff;fill-opacity:1;stroke:#080807;stroke-width:39.53730392;stroke-linecap:butt;stroke-linejoin:round;stroke-miterlimit:4;stroke-dasharray:none;stroke-opacity:1;paint-order:stroke markers fill"
       id="rect1419"
       width="1037.036"
       height="703.28503"
       x="467.01956"
       y="25.305233" />
    <rect
       style="opacity:1;fill:#ffffff;fill-opacity:1;stroke:#080807;stroke-width:8.54644108;stroke-linecap:butt;stroke-linejoin:round;stroke-miterlimit:4;stroke-dasharray:none;stroke-opacity:1;paint-order:stroke markers fill"
       id="rect1458"
       width="996.50928"
       height="629.02606"
       x="486.44376"
       y="57.457466" />
    <rect
       style="opacity:1;fill:#ffffff;fill-opacity:0.01499999;stroke:#322224;stroke-width:3.30486035;stroke-linecap:butt;stroke-linejoin:round;stroke-miterlimit:4;stroke-dasharray:none;stroke-opacity:1;paint-order:stroke markers fill"
       id="rect2566"
       width="647.75262"
       height="180.6657"
       x="660.12366"
       y="245.66714"
       ry="1.7643107" />
    <ellipse
       style="opacity:1;fill:#ffffff;fill-opacity:1;stroke:#080807;stroke-width:6.04610109;stroke-linecap:butt;stroke-linejoin:round;stroke-miterlimit:4;stroke-dasharray:none;stroke-opacity:1;paint-order:stroke markers fill"
       id="path1460"
       cx="988.94495"
       cy="40.724625"
       rx="11.212044"
       ry="11.732839" />
    <ellipse
       style="opacity:1;fill:#ffffff;fill-opacity:1;stroke:#080807;stroke-width:6.04610109;stroke-linecap:butt;stroke-linejoin:round;stroke-miterlimit:4;stroke-dasharray:none;stroke-opacity:1;paint-order:stroke markers fill"
       id="path1462"
       cx="989.20953"
       cy="40.470894"
       rx="3.7438307"
       ry="4.009912" />
    <path
       style="opacity:1;fill:#1a1a1a;fill-opacity:1;stroke:#080807;stroke-width:0.1908589;stroke-linecap:butt;stroke-linejoin:round;stroke-miterlimit:4;stroke-dasharray:none;stroke-opacity:1;paint-order:stroke markers fill"
       d="m 988.61996,44.411242 c -1.56205,-0.271023 -2.82598,-1.635435 -3.08767,-3.333247 -0.07,-0.450391 -0.0306,-1.18331 0.0864,-1.651086 0.33455,-1.335632 1.35408,-2.42264 2.63474,-2.809451 0.49374,-0.149096 1.42574,-0.149011 1.91969,1.8e-4 0.64209,0.19387 1.19118,0.541735 1.66555,1.055104 0.47164,0.510275 0.74263,0.997953 0.94907,1.707274 0.10503,0.360241 0.11815,0.479959 0.11815,1.073764 -5.4e-4,0.761921 -0.0777,1.1548 -0.3468,1.747365 -0.71298,1.574621 -2.33947,2.487455 -3.93806,2.210097 z"
       id="path1548"
       inkscape:connector-curvature="0" />
    <rect
       style="opacity:1;fill:#1a1a1a;fill-opacity:1;stroke:#080807;stroke-width:4.49282503;stroke-linecap:butt;stroke-linejoin:round;stroke-miterlimit:4;stroke-dasharray:none;stroke-opacity:1;paint-order:stroke markers fill"
       id="rect1552"
       width="1025.5995"
       height="32.931725"
       x="482.96558"
       y="657.97125" />
    <path
       style="opacity:1;fill:#1a1a1a;fill-opacity:1;stroke:#080807;stroke-width:6.10748482;stroke-linecap:butt;stroke-linejoin:round;stroke-miterlimit:4;stroke-dasharray:none;stroke-opacity:1;paint-order:stroke markers fill"
       d="M 468.1664,362.73553 V 26.456019 h 256.64376 256.64382 l -3.64902,4.53789 c -2.13488,2.655022 -3.64891,6.35725 -3.64891,8.922712 0,5.933464 3.50144,12.614271 7.38414,14.089435 1.75274,0.66589 -109.70951,1.542567 -247.69393,1.948155 L 482.96555,56.691662 V 373.79736 690.90305 H 984.72698 1486.4883 V 373.79736 56.691662 L 1239.836,55.954211 c -135.6589,-0.405588 -245.36255,-1.234379 -243.78606,-1.84175 7.81996,-3.012786 9.72246,-17.011419 3.28635,-24.180661 l -3.12039,-3.475781 h 253.9452 253.9453 V 362.73553 699.01506 H 986.13641 468.1664 Z"
       id="path1550"
       inkscape:connector-curvature="0" />
    <path
       style="opacity:1;fill:#f2f2f2;fill-opacity:1;stroke:#080807;stroke-width:43.83436203;stroke-linecap:butt;stroke-linejoin:round;stroke-miterlimit:4;stroke-dasharray:none;stroke-opacity:1;paint-order:stroke markers fill"
       d="m 494.28746,781.88162 971.59914,-2.91429 173.5889,190.49459 -1233.88632,3.87712 -69.93748,0.21975 z"
       id="rect1676-6"
       inkscape:connector-curvature="0"
       sodipodi:nodetypes="cccccc" />
    <path
       style="opacity:1;fill:#ffffff;fill-opacity:1;stroke:#080807;stroke-width:57.57212448;stroke-linecap:butt;stroke-linejoin:round;stroke-miterlimit:4;stroke-dasharray:none;stroke-opacity:1;paint-order:stroke markers fill"
       d="M 467.01936,728.59019 H 1504.0551 l 276.1489,318.60301 -1617.10234,-0.9994 z"
       id="rect1419-7"
       inkscape:connector-curvature="0"
       sodipodi:nodetypes="ccccc" />
    <path
       style="opacity:1;fill:#000000;fill-opacity:1;stroke:#080807;stroke-width:44.36897659;stroke-linecap:butt;stroke-linejoin:round;stroke-miterlimit:4;stroke-dasharray:none;stroke-opacity:1;paint-order:stroke markers fill"
       d="m 488.27141,780.73052 983.44909,-2.94983 175.7057,192.81791 -1248.93486,3.92439 -70.79045,0.22242 z"
       id="rect1676"
       inkscape:connector-curvature="0"
       sodipodi:nodetypes="cccccc" />
    <path
       style="opacity:1;fill:#f4d7d7;fill-opacity:0.01000001;stroke:#ffffff;stroke-width:11.04967308;stroke-linecap:butt;stroke-linejoin:round;stroke-miterlimit:4;stroke-dasharray:none;stroke-opacity:1;paint-order:stroke markers fill"
       d="m 497.32658,775.11268 966.23432,-2.50367 170.3148,193.60478 -1228.41859,2.86088 -68.02582,-1.4404 z"
       id="rect1676-7"
       inkscape:connector-curvature="0"
       sodipodi:nodetypes="cccccc" />
    <path
       style="opacity:1;fill:#f9f9f9;fill-opacity:1;stroke:#080807;stroke-width:0;stroke-linecap:butt;stroke-linejoin:round;stroke-miterlimit:4;stroke-dasharray:none;stroke-opacity:1;paint-order:stroke markers fill"
       d="m 542.9637,775.12394 h 27.65688 l -134.30873,194.04284 -30.85474,-0.0921 z"
       id="rect2004"
       inkscape:connector-curvature="0"
       sodipodi:nodetypes="ccccc" />
    <path
       style="opacity:1;fill:#f9f9f9;fill-opacity:1;stroke:#080807;stroke-width:0;stroke-linecap:butt;stroke-linejoin:round;stroke-miterlimit:4;stroke-dasharray:none;stroke-opacity:1;paint-order:stroke markers fill"
       d="M 614.78204,775.7031 641.83395,775.15001 508.4759,969.0085 477.01619,968.9164 Z"
       id="rect2004-7"
       inkscape:connector-curvature="0"
       sodipodi:nodetypes="ccccc" />
    <path
       style="opacity:1;fill:#f9f9f9;fill-opacity:1;stroke:#080807;stroke-width:0;stroke-linecap:butt;stroke-linejoin:round;stroke-miterlimit:4;stroke-dasharray:none;stroke-opacity:1;paint-order:stroke markers fill"
       d="m 687.63658,775.1192 27.2291,-0.1368 -133.2917,193.68252 -31.0948,0.21984 z"
       id="rect2004-0"
       inkscape:connector-curvature="0"
       sodipodi:nodetypes="ccccc" />
    <path
       style="opacity:1;fill:#f9f9f9;fill-opacity:1;stroke:#080807;stroke-width:0;stroke-linecap:butt;stroke-linejoin:round;stroke-miterlimit:4;stroke-dasharray:none;stroke-opacity:1;paint-order:stroke markers fill"
       d="m 744.52862,774.74345 24.99094,-0.0316 -110.59428,193.82591 -30.06382,0.10218 z"
       id="rect2004-3"
       inkscape:connector-curvature="0"
       sodipodi:nodetypes="ccccc"
       inkscape:transform-center-x="-77.390213"
       inkscape:transform-center-y="-14.028243" />
    <path
       style="opacity:1;fill:#f9f9f9;fill-opacity:1;stroke:#080807;stroke-width:0;stroke-linecap:butt;stroke-linejoin:round;stroke-miterlimit:4;stroke-dasharray:none;stroke-opacity:1;paint-order:stroke markers fill"
       d="m 801.31072,774.59369 24.83276,-0.1209 -90.95511,193.98594 -28.93009,2.1e-4 z"
       id="rect2004-3-9"
       inkscape:connector-curvature="0"
       sodipodi:nodetypes="ccccc"
       inkscape:transform-center-x="-75.964961"
       inkscape:transform-center-y="-21.105492" />
    <path
       style="opacity:1;fill:#f9f9f9;fill-opacity:1;stroke:#080807;stroke-width:0;stroke-linecap:butt;stroke-linejoin:round;stroke-miterlimit:4;stroke-dasharray:none;stroke-opacity:1;paint-order:stroke markers fill"
       d="m 903.69685,774.22139 19.90375,-0.45377 -39.38977,194.11694 -25.55731,0.008 z"
       id="rect2004-3-9-2-5"
       inkscape:connector-curvature="0"
       sodipodi:nodetypes="ccccc"
       inkscape:transform-center-x="-68.602428"
       inkscape:transform-center-y="-40.696782" />
    <path
       style="opacity:1;fill:#f9f9f9;fill-opacity:1;stroke:#080807;stroke-width:0;stroke-linecap:butt;stroke-linejoin:round;stroke-miterlimit:4;stroke-dasharray:none;stroke-opacity:1;paint-order:stroke markers fill"
       d="m 954.58706,774.16273 21.95878,-0.0212 -18.65038,193.44276 -25.25324,0.30395 c 1.08887,-8.90478 21.94484,-193.72552 21.94484,-193.72552 z"
       id="rect2004-3-9-2-0"
       inkscape:connector-curvature="0"
       sodipodi:nodetypes="ccccc"
       inkscape:transform-center-x="-63.958625"
       inkscape:transform-center-y="-48.544325" />
    <path
       style="opacity:1;fill:#f9f9f9;fill-opacity:1;stroke:#080807;stroke-width:0;stroke-linecap:butt;stroke-linejoin:round;stroke-miterlimit:4;stroke-dasharray:none;stroke-opacity:1;paint-order:stroke markers fill"
       d="m 856.70953,774.12942 23.32723,-0.16016 -73.19959,193.99854 -27.30034,-0.0294 z"
       id="rect2004-3-9-2"
       inkscape:connector-curvature="0"
       sodipodi:nodetypes="ccccc"
       inkscape:transform-center-x="-74.180791"
       inkscape:transform-center-y="-27.389376" />
    <path
       style="opacity:1;fill:#f9f9f9;fill-opacity:1;stroke:#080807;stroke-width:0;stroke-linecap:butt;stroke-linejoin:round;stroke-miterlimit:4;stroke-dasharray:none;stroke-opacity:1;paint-order:stroke markers fill"
       d="m 1434.5467,772.61852 h -27.6568 l 134.3087,194.04284 30.8546,-0.0921 z"
       id="rect2004-2"
       inkscape:connector-curvature="0"
       sodipodi:nodetypes="ccccc" />
    <path
       style="opacity:1;fill:#f9f9f9;fill-opacity:1;stroke:#080807;stroke-width:0;stroke-linecap:butt;stroke-linejoin:round;stroke-miterlimit:4;stroke-dasharray:none;stroke-opacity:1;paint-order:stroke markers fill"
       d="m 1362.7284,773.19767 -27.0519,-0.55308 133.3581,193.85848 31.4597,-0.0921 z"
       id="rect2004-7-7"
       inkscape:connector-curvature="0"
       sodipodi:nodetypes="ccccc" />
    <path
       style="opacity:1;fill:#f9f9f9;fill-opacity:1;stroke:#080807;stroke-width:0;stroke-linecap:butt;stroke-linejoin:round;stroke-miterlimit:4;stroke-dasharray:none;stroke-opacity:1;paint-order:stroke markers fill"
       d="m 1289.8737,772.61378 -27.2288,-0.1368 133.2916,193.68253 31.0947,0.21983 z"
       id="rect2004-0-3"
       inkscape:connector-curvature="0"
       sodipodi:nodetypes="ccccc" />
    <path
       style="opacity:1;fill:#f9f9f9;fill-opacity:1;stroke:#080807;stroke-width:0;stroke-linecap:butt;stroke-linejoin:round;stroke-miterlimit:4;stroke-dasharray:none;stroke-opacity:1;paint-order:stroke markers fill"
       d="m 1232.9819,772.23803 -24.991,-0.0316 110.5942,193.82591 30.0638,0.10218 z"
       id="rect2004-3-91"
       inkscape:connector-curvature="0"
       sodipodi:nodetypes="ccccc"
       inkscape:transform-center-x="77.390267"
       inkscape:transform-center-y="-14.028242" />
    <path
       style="opacity:1;fill:#f9f9f9;fill-opacity:1;stroke:#080807;stroke-width:0;stroke-linecap:butt;stroke-linejoin:round;stroke-miterlimit:4;stroke-dasharray:none;stroke-opacity:1;paint-order:stroke markers fill"
       d="m 1176.1997,772.08827 -24.8328,-0.1209 90.9553,193.98594 28.9301,2.1e-4 z"
       id="rect2004-3-9-4"
       inkscape:connector-curvature="0"
       sodipodi:nodetypes="ccccc"
       inkscape:transform-center-x="75.964931"
       inkscape:transform-center-y="-21.10549" />
    <path
       style="opacity:1;fill:#f9f9f9;fill-opacity:1;stroke:#080807;stroke-width:0;stroke-linecap:butt;stroke-linejoin:round;stroke-miterlimit:4;stroke-dasharray:none;stroke-opacity:1;paint-order:stroke markers fill"
       d="m 1073.8137,771.71595 -19.9039,-0.45375 39.3899,194.11694 25.5574,0.008 z"
       id="rect2004-3-9-2-5-2"
       inkscape:connector-curvature="0"
       sodipodi:nodetypes="ccccc"
       inkscape:transform-center-x="68.602388"
       inkscape:transform-center-y="-40.69678" />
    <path
       style="opacity:1;fill:#f9f9f9;fill-opacity:1;stroke:#080807;stroke-width:0;stroke-linecap:butt;stroke-linejoin:round;stroke-miterlimit:4;stroke-dasharray:none;stroke-opacity:1;paint-order:stroke markers fill"
       d="m 1022.9235,771.65731 -21.9586,-0.0212 18.6501,193.44276 25.2532,0.30395 c -1.0889,-8.90478 -21.9447,-193.72552 -21.9447,-193.72552 z"
       id="rect2004-3-9-2-0-2"
       inkscape:connector-curvature="0"
       sodipodi:nodetypes="ccccc"
       inkscape:transform-center-x="63.958633"
       inkscape:transform-center-y="-48.544324" />
    <path
       style="opacity:1;fill:#f9f9f9;fill-opacity:1;stroke:#080807;stroke-width:0;stroke-linecap:butt;stroke-linejoin:round;stroke-miterlimit:4;stroke-dasharray:none;stroke-opacity:1;paint-order:stroke markers fill"
       d="m 1120.8011,771.624 -23.3275,-0.16016 73.2,193.99853 27.3004,-0.0294 z"
       id="rect2004-3-9-2-6"
       inkscape:connector-curvature="0"
       sodipodi:nodetypes="ccccc"
       inkscape:transform-center-x="74.180713"
       inkscape:transform-center-y="-27.38938" />
    <path
       style="opacity:1;fill:#f2f2f2;fill-opacity:1;stroke:#080807;stroke-width:0;stroke-linecap:butt;stroke-linejoin:round;stroke-miterlimit:4;stroke-dasharray:none;stroke-opacity:1;paint-order:stroke markers fill"
       d="m 480.67742,795.64419 1002.30628,0.22191 16.5294,18.85286 -1034.91911,0.52065 v 0 z"
       id="rect1676-1"
       inkscape:connector-curvature="0"
       sodipodi:nodetypes="cccccc" />
    <path
       style="opacity:1;fill:#f2f2f2;fill-opacity:1;stroke:#080807;stroke-width:0;stroke-linecap:butt;stroke-linejoin:round;stroke-miterlimit:4;stroke-dasharray:none;stroke-opacity:1;paint-order:stroke markers fill"
       d="m 445.64137,837.1564 1077.20243,0.22189 17.7643,18.85288 -1112.25196,0.52065 v 0 z"
       id="rect1676-1-9"
       inkscape:connector-curvature="0"
       sodipodi:nodetypes="cccccc" />
    <path
       style="opacity:1;fill:#f2f2f2;fill-opacity:1;stroke:#080807;stroke-width:0;stroke-linecap:butt;stroke-linejoin:round;stroke-miterlimit:4;stroke-dasharray:none;stroke-opacity:1;paint-order:stroke markers fill"
       d="m 422.78774,872.21094 1128.87926,0.22188 16.6183,19.29244 -1163.61202,0.0811 v 0 z"
       id="rect1676-1-9-7"
       inkscape:connector-curvature="0"
       sodipodi:nodetypes="cccccc" />
    <path
       style="opacity:1;fill:#f2f2f2;fill-opacity:1;stroke:#080807;stroke-width:0;stroke-linecap:butt;stroke-linejoin:round;stroke-miterlimit:4;stroke-dasharray:none;stroke-opacity:1;paint-order:stroke markers fill"
       d="m 368.15401,917.14232 1233.76079,-0.19039 16.9151,12.94273 -1265.96502,0.45062 -0.5171,0.003 z"
       id="rect1676-1-9-7-9"
       inkscape:connector-curvature="0"
       sodipodi:nodetypes="cccccc" />
    <g
       aria-label="Make Appointment"
       transform="matrix(1.3965393,0,0,1.3965393,-437.13649,-226.95547)"
       style="font-style:normal;font-variant:normal;font-weight:normal;font-stretch:normal;font-size:40px;line-height:1.25;font-family:'Snap ITC';-inkscape-font-specification:'Snap ITC';text-align:center;letter-spacing:0px;word-spacing:0px;text-anchor:middle;fill:#000000;fill-opacity:1;stroke:none;stroke-width:0.07160558;stroke-miterlimit:4;stroke-dasharray:none"
       id="flowRoot851">
      <path
         d="m 946.9834,383.49977 h -14.03646 v -8.67187 h 2.78646 v -18.88021 h -2.86458 v -8.67188 h 21.84895 l 5.33855,13.98438 5.46875,-13.98438 h 21.71875 v 8.67188 h -2.83855 v 18.88021 h 2.91667 v 8.67187 h -18.90625 v -8.67187 h 2.89063 v -20.23438 l -10.9375,28.90625 h -5.41667 l -10.83333,-28.64583 v 19.97396 h 2.86458 z"
         style="font-style:normal;font-variant:normal;font-weight:normal;font-stretch:normal;font-size:53.33333206px;font-family:'Rockwell Extra Bold';-inkscape-font-specification:'Rockwell Extra Bold, ';text-align:center;text-anchor:middle;stroke-width:0.07160558;stroke-miterlimit:4;stroke-dasharray:none"
         id="path2568" />
      <path
         d="m 1011.6709,377.04144 v -4.60938 q -1.7448,-0.9375 -3.6979,-0.9375 -1.7188,0 -2.7344,0.9375 -1.0156,0.96355 -1.0156,2.44792 0,1.53646 1.0416,2.5 1.0678,0.98958 2.448,0.98958 2.4479,0 3.9583,-1.32812 z m -9.8177,-11.74479 -10.26043,-1.04167 q 1.69271,-3.72396 5.46875,-5.23437 3.72398,-1.51042 10.98958,-1.51042 2.6823,0 4.7917,0.18229 2.1354,0.15625 3.8021,0.49479 3.4635,0.65104 5.1302,2.00521 1.6666,1.38021 2.3177,2.96875 0.6771,1.64063 0.6771,5.10417 v 7.29166 h 3.2291 v 7.94271 h -16.3281 v -1.71875 q -3.3854,2.1875 -9.0625,2.1875 -5.33854,0 -8.04688,-2.34375 -2.73437,-2.34375 -2.73437,-5.54687 0,-3.54167 3.35937,-5.80729 3.33334,-2.26563 8.69788,-2.26563 4.8959,0 7.7865,1.27604 v -0.75521 q 0,-2.34375 -0.3385,-3.28125 -0.3646,-0.98958 -1.6146,-1.6927 -1.3021,-0.67709 -3.0209,-0.67709 -3.151,0 -4.8437,2.42188 z"
         style="font-style:normal;font-variant:normal;font-weight:normal;font-stretch:normal;font-size:53.33333206px;font-family:'Rockwell Extra Bold';-inkscape-font-specification:'Rockwell Extra Bold, ';text-align:center;text-anchor:middle;stroke-width:0.07160558;stroke-miterlimit:4;stroke-dasharray:none"
         id="path2570" />
      <path
         d="m 1047.1136,383.49977 h -16.3281 v -7.94271 h 3.2291 v -20.33854 h -3.2812 v -7.94271 h 16.3802 v 25.23438 l 8.2292,-8.04688 h -4.6094 v -6.22395 h 16.1458 v 6.84895 h -2.9427 l -4.7396,4.63542 5.7032,5.83333 h 2.0573 v 7.94271 h -9.4011 l -10.4427,-10.98958 z"
         style="font-style:normal;font-variant:normal;font-weight:normal;font-stretch:normal;font-size:53.33333206px;font-family:'Rockwell Extra Bold';-inkscape-font-specification:'Rockwell Extra Bold, ';text-align:center;text-anchor:middle;stroke-width:0.07160558;stroke-miterlimit:4;stroke-dasharray:none"
         id="path2572" />
      <path
         d="m 1083.6501,368.8904 h 7.3698 q 0.052,-0.78125 0.052,-0.88542 0,-2.05729 -1.0416,-3.41146 -1.0417,-1.32812 -2.7604,-1.32812 -1.7709,0 -2.7084,1.45833 -0.9375,1.48438 -0.9375,3.64583 0,0.28646 0.026,0.52084 z m 8.3333,6.61458 10.8073,1.32813 q -0.7292,1.6927 -2.0313,3.04687 -1.302,1.32812 -3.177,2.31771 -3.7761,2.03125 -9.0365,2.03125 -8.8281,0 -13.2813,-3.67188 -4.4531,-3.64583 -4.4531,-9.55729 0,-5.78125 4.4011,-9.63541 4.3489,-3.85417 11.7968,-3.85417 7.1615,0 11.6667,3.64583 4.4271,3.61979 4.7135,11.01563 h -19.8958 q 0.078,6.14583 4.5833,6.14583 2.7084,0 3.9063,-2.8125 z"
         style="font-style:normal;font-variant:normal;font-weight:normal;font-stretch:normal;font-size:53.33333206px;font-family:'Rockwell Extra Bold';-inkscape-font-specification:'Rockwell Extra Bold, ';text-align:center;text-anchor:middle;stroke-width:0.07160558;stroke-miterlimit:4;stroke-dasharray:none"
         id="path2574" />
      <path
         d="m 824.76986,423.13518 -3.41146,10.02604 h 6.48438 z m -3.41146,27.03125 h -14.34895 v -8.67188 h 2.76041 l 6.79688,-18.8802 h -2.91667 v -8.67188 h 26.04167 v 8.67188 h -2.91667 l 6.92708,18.8802 h 2.65625 v 8.67188 h -18.90625 v -7.94271 h 3.17709 l -1.38021,-4.55729 h -9.27084 l -1.58854,4.55729 h 2.96875 z"
         style="font-style:normal;font-variant:normal;font-weight:normal;font-stretch:normal;font-size:53.33333206px;font-family:'Rockwell Extra Bold';-inkscape-font-specification:'Rockwell Extra Bold, ';text-align:center;text-anchor:middle;stroke-width:0.07160558;stroke-miterlimit:4;stroke-dasharray:none"
         id="path2576" />
      <path
         d="m 864.95215,437.64039 q 0,2.73437 1.25,4.11458 1.22396,1.40625 3.09896,1.40625 4.45312,0 4.45312,-5.67708 0,-5.54688 -4.27083,-5.54688 -1.95312,0 -3.22916,1.35417 -1.30209,1.38021 -1.30209,4.34896 z m -16.06771,-4.79167 v -7.94271 h 16.14584 v 1.69271 q 4.16666,-2.16146 8.5677,-2.16146 5.625,0 9.66146,3.64584 4.01042,3.67187 4.01042,9.60937 0,5.98958 -3.93229,9.45312 -3.95834,3.48959 -10.28646,3.48959 -4.6875,0 -8.02083,-2.08334 v 5.26042 h 3.33333 v 7.94271 h -19.53125 v -7.94271 h 3.09896 v -20.96354 z"
         style="font-style:normal;font-variant:normal;font-weight:normal;font-stretch:normal;font-size:53.33333206px;font-family:'Rockwell Extra Bold';-inkscape-font-specification:'Rockwell Extra Bold, ';text-align:center;text-anchor:middle;stroke-width:0.07160558;stroke-miterlimit:4;stroke-dasharray:none"
         id="path2578" />
      <path
         d="m 907.76465,437.64039 q 0,2.73437 1.25,4.11458 1.22396,1.40625 3.09896,1.40625 4.45312,0 4.45312,-5.67708 0,-5.54688 -4.27083,-5.54688 -1.95313,0 -3.22917,1.35417 -1.30208,1.38021 -1.30208,4.34896 z m -16.06771,-4.79167 v -7.94271 h 16.14583 v 1.69271 q 4.16667,-2.16146 8.56771,-2.16146 5.625,0 9.66146,3.64584 4.01042,3.67187 4.01042,9.60937 0,5.98958 -3.9323,9.45312 -3.95833,3.48959 -10.28645,3.48959 -4.6875,0 -8.02084,-2.08334 v 5.26042 h 3.33334 v 7.94271 h -19.53125 v -7.94271 h 3.09895 v -20.96354 z"
         style="font-style:normal;font-variant:normal;font-weight:normal;font-stretch:normal;font-size:53.33333206px;font-family:'Rockwell Extra Bold';-inkscape-font-specification:'Rockwell Extra Bold, ';text-align:center;text-anchor:middle;stroke-width:0.07160558;stroke-miterlimit:4;stroke-dasharray:none"
         id="path2580" />
      <path
         d="m 948.10319,437.4581 q 0,6.04166 4.32292,6.04166 4.58333,0 4.58333,-6.09375 0,-2.78646 -1.11979,-4.32291 -1.14584,-1.53646 -3.22917,-1.53646 -2.05729,0 -3.30729,1.51041 -1.25,1.51042 -1.25,4.40105 z m -13.25521,-0.0521 q 0,-5.57291 4.6875,-9.40104 4.6875,-3.82812 12.65625,-3.82812 8.02083,0 13.04688,3.69791 5.02604,3.69792 5.02604,9.63542 0,5.72916 -4.79167,9.55729 -4.79167,3.82812 -12.65625,3.82812 -8.48958,0 -13.22917,-3.82812 -4.73958,-3.80208 -4.73958,-9.66146 z"
         style="font-style:normal;font-variant:normal;font-weight:normal;font-stretch:normal;font-size:53.33333206px;font-family:'Rockwell Extra Bold';-inkscape-font-specification:'Rockwell Extra Bold, ';text-align:center;text-anchor:middle;stroke-width:0.07160558;stroke-miterlimit:4;stroke-dasharray:none"
         id="path2582" />
      <path
         d="m 992.32194,450.16643 h -17.89062 v -7.94271 h 2.60416 v -9.375 h -2.60416 v -7.94271 h 15.70312 v 17.31771 h 2.1875 z M 975.94173,417.7706 q 0,-2.0573 2.10938,-3.3073 2.08333,-1.25 5.15625,-1.25 3.15104,0 5.07812,1.30209 1.90104,1.32812 1.90104,3.22916 0,2.0573 -1.97916,3.25521 -2.00521,1.22396 -5.05209,1.22396 -3.09896,0 -5.15625,-1.11979 -2.05729,-1.09375 -2.05729,-3.33333 z"
         style="font-style:normal;font-variant:normal;font-weight:normal;font-stretch:normal;font-size:53.33333206px;font-family:'Rockwell Extra Bold';-inkscape-font-specification:'Rockwell Extra Bold, ';text-align:center;text-anchor:middle;stroke-width:0.07160558;stroke-miterlimit:4;stroke-dasharray:none"
         id="path2584" />
      <path
         d="m 1016.0459,450.16643 h -20 v -7.94271 h 3.25521 v -9.375 h -3.25521 v -7.94271 h 16.3542 v 3.20313 q 4.8177,-3.67188 10.3385,-3.67188 4.8438,0 7.2917,2.68229 2.4219,2.6823 2.4219,8.6198 v 6.48437 h 2.9947 v 7.94271 h -16.0937 v -11.22396 q 0,-3.67187 -0.625,-4.84375 -0.6771,-1.14583 -2.5781,-1.14583 -1.7448,0 -3.75,1.32812 v 7.94271 h 3.6458 z"
         style="font-style:normal;font-variant:normal;font-weight:normal;font-stretch:normal;font-size:53.33333206px;font-family:'Rockwell Extra Bold';-inkscape-font-specification:'Rockwell Extra Bold, ';text-align:center;text-anchor:middle;stroke-width:0.07160558;stroke-miterlimit:4;stroke-dasharray:none"
         id="path2586" />
      <path
         d="m 1059.4834,440.94768 v 7.76041 q -1.276,0.85938 -3.6979,1.51042 -2.5521,0.67708 -4.8958,0.67708 -2.9428,0 -5.0521,-0.96354 -2.1615,-0.98958 -3.2552,-2.65625 -0.599,-0.96354 -0.8855,-1.74479 -0.2864,-0.80729 -0.4166,-1.79687 -0.1823,-1.71875 -0.1823,-6.64063 v -4.24479 h -3.2292 v -7.94271 h 3.2292 v -3.88021 l 13.0989,-6.22395 v 10.10416 h 5.2865 v 7.94271 h -5.2865 v 4.89583 q 0,2.39584 0.4428,3.20313 0.4166,0.80729 1.7708,0.80729 1.276,0 3.0729,-0.80729 z"
         style="font-style:normal;font-variant:normal;font-weight:normal;font-stretch:normal;font-size:53.33333206px;font-family:'Rockwell Extra Bold';-inkscape-font-specification:'Rockwell Extra Bold, ';text-align:center;text-anchor:middle;stroke-width:0.07160558;stroke-miterlimit:4;stroke-dasharray:none"
         id="path2588" />
      <path
         d="m 1083.6501,450.16643 h -19.7917 v -7.94271 h 3.125 v -9.375 h -3.1771 v -7.94271 h 16.3021 v 3.46354 q 1.875,-1.58854 4.9219,-2.76041 3.0208,-1.17188 5.7812,-1.17188 6.4323,0 8.6198,4.94792 5.8073,-4.94792 11.849,-4.94792 3.3073,0 5.4427,1.40625 2.1875,1.43229 3.0729,3.80209 0.9115,2.44791 0.9115,6.875 v 5.70312 h 3.3333 v 7.94271 h -16.4323 v -10.85938 q 0,-4.24479 -0.651,-5.28645 -0.6511,-1.04167 -2.3438,-1.04167 -2.1354,0 -4.2969,1.61458 v 7.63021 h 3.5677 v 7.94271 h -16.6666 v -10.80729 q 0,-4.16667 -0.5729,-5.28646 -0.573,-1.09375 -2.3178,-1.09375 -2.0052,0 -4.2187,1.61458 v 7.63021 h 3.5417 z"
         style="font-style:normal;font-variant:normal;font-weight:normal;font-stretch:normal;font-size:53.33333206px;font-family:'Rockwell Extra Bold';-inkscape-font-specification:'Rockwell Extra Bold, ';text-align:center;text-anchor:middle;stroke-width:0.07160558;stroke-miterlimit:4;stroke-dasharray:none"
         id="path2590" />
      <path
         d="m 1140.6292,435.55705 h 7.3698 q 0.052,-0.78125 0.052,-0.88541 0,-2.05729 -1.0417,-3.41146 -1.0416,-1.32813 -2.7604,-1.32813 -1.7708,0 -2.7083,1.45834 -0.9375,1.48437 -0.9375,3.64583 0,0.28646 0.026,0.52083 z m 8.3334,6.61459 10.8073,1.32812 q -0.7292,1.69271 -2.0313,3.04688 -1.3021,1.32812 -3.1771,2.3177 -3.776,2.03125 -9.0364,2.03125 -8.8282,0 -13.2813,-3.67187 -4.4531,-3.64583 -4.4531,-9.55729 0,-5.78125 4.401,-9.63542 4.349,-3.85416 11.7969,-3.85416 7.1615,0 11.6667,3.64583 4.4271,3.61979 4.7135,11.01562 h -19.8958 q 0.078,6.14584 4.5833,6.14584 2.7084,0 3.9063,-2.8125 z"
         style="font-style:normal;font-variant:normal;font-weight:normal;font-stretch:normal;font-size:53.33333206px;font-family:'Rockwell Extra Bold';-inkscape-font-specification:'Rockwell Extra Bold, ';text-align:center;text-anchor:middle;stroke-width:0.07160558;stroke-miterlimit:4;stroke-dasharray:none"
         id="path2592" />
      <path
         d="m 1184.5876,450.16643 h -20 v -7.94271 h 3.2552 v -9.375 h -3.2552 v -7.94271 h 16.3541 v 3.20313 q 4.8177,-3.67188 10.3386,-3.67188 4.8437,0 7.2916,2.68229 2.4219,2.6823 2.4219,8.6198 v 6.48437 h 2.9948 v 7.94271 h -16.0937 v -11.22396 q 0,-3.67187 -0.625,-4.84375 -0.6771,-1.14583 -2.5782,-1.14583 -1.7448,0 -3.75,1.32812 v 7.94271 h 3.6459 z"
         style="font-style:normal;font-variant:normal;font-weight:normal;font-stretch:normal;font-size:53.33333206px;font-family:'Rockwell Extra Bold';-inkscape-font-specification:'Rockwell Extra Bold, ';text-align:center;text-anchor:middle;stroke-width:0.07160558;stroke-miterlimit:4;stroke-dasharray:none"
         id="path2594" />
      <path
         d="m 1228.0251,440.94768 v 7.76041 q -1.2761,0.85938 -3.698,1.51042 -2.552,0.67708 -4.8958,0.67708 -2.9427,0 -5.0521,-0.96354 -2.1614,-0.98958 -3.2552,-2.65625 -0.5989,-0.96354 -0.8854,-1.74479 -0.2865,-0.80729 -0.4167,-1.79687 -0.1823,-1.71875 -0.1823,-6.64063 v -4.24479 h -3.2291 v -7.94271 h 3.2291 v -3.88021 l 13.099,-6.22395 v 10.10416 h 5.2865 v 7.94271 h -5.2865 v 4.89583 q 0,2.39584 0.4427,3.20313 0.4167,0.80729 1.7708,0.80729 1.2761,0 3.073,-0.80729 z"
         style="font-style:normal;font-variant:normal;font-weight:normal;font-stretch:normal;font-size:53.33333206px;font-family:'Rockwell Extra Bold';-inkscape-font-specification:'Rockwell Extra Bold, ';text-align:center;text-anchor:middle;stroke-width:0.07160558;stroke-miterlimit:4;stroke-dasharray:none"
         id="path2596" />
    </g>
  </g>
</svg>
